# xmcd
#
# Track frame offsets:
#	150
#	18954
#	40074
#	61199
#	82855
#	101261
#	121924
#	143008
#	167891
#	192751
#	213351
#	233789
#	253496
#	271765
#	291352
#	307240
#	325427
#
# Disc length: 4581 seconds
#
# Revision: 1
# Processed by: cddbd v1.5.2PL0 Copyright (c) Steve Scherf et al.
# Submitted via: audiograbber 1.82.02
#
DISCID=ee11e311
DTITLE=Celine Dion - Ultimate Box - Disc 2
DYEAR=2008
DGENRE=Trip-Hop
TTITLE0=A World To Beleive In
TTITLE1=My Heart Will Go On 
TTITLE2=To Love You More
TTITLE3=The Power Of Love
TTITLE4=Beauty And The Beast
TTITLE5=Because You Loved Me 
TTITLE6=Be The Man (On This Night)
TTITLE7=It's All Coming Back To Me Now
TTITLE8=I'm Your Angel
TTITLE9=Where Does My Heart Beat Now
TTITLE10=The Power Of The Dream
TTITLE11=When I Fall In Love
TTITLE12=That's The Way It Is
TTITLE13=A New Day Has Come
TTITLE14=I'm Alive
TTITLE15=I Drove All Night
TTITLE16=Taking Chances
EXTD=
EXTT0=
EXTT1=
EXTT2=
EXTT3=
EXTT4=
EXTT5=
EXTT6=
EXTT7=
EXTT8=
EXTT9=
EXTT10=
EXTT11=
EXTT12=
EXTT13=
EXTT14=
EXTT15=
EXTT16=
PLAYORDER=
